<svg xmlns="http://www.w3.org/2000/svg" width="198" height="198">
    <path fill="#EDEDEE" fill-rule="evenodd" d="M99 0c54.676 0 99 44.324 99 99s-44.324 99-99 99S0 153.676 0 99 44.324 0 99 0z" opacity=".431"/>
    <path fill="#FFF" fill-rule="evenodd" d="M99 25c40.869 0 74 33.131 74 74s-33.131 74-74 74-74-33.131-74-74 33.131-74 74-74z"/>
    <path fill="#00BD99" fill-rule="evenodd" d="M135.764 120.832a12.965 12.965 0 0 0-1.816 8.051l.979 9.348a1.599 1.599 0 0 1-1.593 1.769h-15.043a1.601 1.601 0 0 1-1.601-1.602v-3.772c0-.883-.345-1.713-.971-2.336a3.272 3.272 0 0 0-2.325-.96h-.053c-2.285 0-4.43-.89-6.045-2.509a8.472 8.472 0 0 1-2.491-6.089l.011-1.624h-3.292a1.603 1.603 0 0 1-1.443-2.299c.98-2.028 2.937-7.565 2.937-9.512 0-4.754 1.837-9.237 5.173-12.624a17.887 17.887 0 0 1 12.525-5.365c4.816-.078 9.37 1.713 12.815 5.042 3.447 3.331 5.39 7.818 5.471 12.635.068 3.98-1.142 8.408-3.238 11.847zM121.01 94.509l-.243.002c-8.02.13-14.546 6.762-14.546 14.786 0 2.105-1.256 5.957-2.284 8.607h2.493a1.6 1.6 0 0 1 1.601 1.613l-.023 3.238a5.294 5.294 0 0 0 1.557 3.804 5.293 5.293 0 0 0 3.776 1.568h.053c1.731 0 3.358.672 4.585 1.893a6.458 6.458 0 0 1 1.914 4.606v2.171h11.663l-.794-7.58a16.184 16.184 0 0 1 2.267-10.051c1.766-2.899 2.827-6.779 2.77-10.127-.137-8.061-6.748-14.53-14.789-14.53zm11.128 16.196l-.028.001a1.602 1.602 0 0 1-1.601-1.574c-.089-5.23-4.425-9.416-9.655-9.331a9.477 9.477 0 0 0-2.516.379 1.602 1.602 0 0 1-.9-3.074c1.09-.319 2.221-.49 3.364-.508a12.624 12.624 0 0 1 9.047 3.56 12.616 12.616 0 0 1 3.863 8.919 1.6 1.6 0 0 1-1.574 1.628zm-17.631-8.33l-.027.025c-.31.295-.707.44-1.103.44a1.6 1.6 0 0 1-1.103-2.762l.035-.033a1.6 1.6 0 1 1 2.2 2.328l-.002.002zm11.318-14.167a1.6 1.6 0 0 1-2.101 1.888l-7.026-2.545a21.621 21.621 0 0 1-5.236.634c-5.075 0-9.782-1.701-13.041-4.687-3.601 2.358-8.209 3.65-13.074 3.65a26.22 26.22 0 0 1-6.107-.709l-8.843 3.127a1.596 1.596 0 0 1-1.657-.368 1.6 1.6 0 0 1-.396-1.65l1.876-5.609c-2.959-2.614-4.575-5.903-4.575-9.365 0-3.995 2.12-7.715 5.969-10.475C75.303 59.456 80.18 58 85.346 58c5.167 0 10.043 1.456 13.732 4.099a17.162 17.162 0 0 1 2.203 1.871l.012-.007c2.958-1.701 6.474-2.599 10.169-2.599 4.499 0 8.747 1.344 11.96 3.784 3.344 2.541 5.185 5.959 5.185 9.626 0 3.176-1.402 6.197-3.971 8.601l1.189 4.833zM97.212 64.703c-3.149-2.257-7.363-3.5-11.866-3.5-4.502 0-8.716 1.243-11.865 3.5-2.988 2.141-4.633 4.936-4.633 7.871 0 2.779 1.498 5.465 4.218 7.562.54.416.757 1.129.541 1.776l-1.184 3.54 6.203-2.193c.302-.107.629-.12.938-.04 1.848.482 3.794.726 5.782.726 4.503 0 8.717-1.243 11.866-3.5 2.987-2.141 4.632-4.936 4.632-7.871 0-2.935-1.645-5.73-4.632-7.871zm28.192 10.071c0-5.628-6.254-10.207-13.942-10.207-2.966 0-5.778.673-8.167 1.949 1.149 1.872 1.753 3.925 1.753 6.058 0 3.28-1.43 6.375-4.072 8.904 2.642 2.209 6.475 3.504 10.486 3.504 1.68 0 3.324-.219 4.886-.651.32-.088.659-.075.972.038l4.678 1.695-.705-2.87a1.6 1.6 0 0 1 .541-1.622c2.302-1.881 3.57-4.295 3.57-6.798zm-5.304-.811h-8.896a1.602 1.602 0 0 1 0-3.204h8.896a1.602 1.602 0 0 1 0 3.204zm1.207 4.164c0 .884-.717 1.601-1.601 1.601h-11.562a1.601 1.601 0 0 1 0-3.203h11.562c.884 0 1.601.717 1.601 1.602zm-34.359-4.025v.494a1.602 1.602 0 1 1-3.203 0v-1.831c0-.885.717-1.602 1.601-1.602.979 0 1.775-.796 1.775-1.775 0-.978-.796-1.775-1.775-1.775-.979 0-1.775.797-1.775 1.775a1.602 1.602 0 1 1-3.203 0 4.984 4.984 0 0 1 4.978-4.978 4.984 4.984 0 0 1 4.979 4.978 4.987 4.987 0 0 1-3.377 4.714zm-1.602 2.917c.421 0 .835.171 1.133.469.298.298.469.711.469 1.132 0 .422-.171.835-.469 1.133a1.62 1.62 0 0 1-1.133.469c-.421 0-.834-.172-1.132-.469a1.613 1.613 0 0 1-.469-1.133c0-.421.171-.834.469-1.132a1.613 1.613 0 0 1 1.132-.469zm2.463 19.654a17.888 17.888 0 0 1 5.174 12.624c0 1.948 1.957 7.485 2.936 9.513a1.602 1.602 0 0 1-1.443 2.298h-3.292l.011 1.625a8.472 8.472 0 0 1-2.491 6.088 8.484 8.484 0 0 1-6.083 2.509 3.278 3.278 0 0 0-2.34.96 3.275 3.275 0 0 0-.97 2.336v3.773c0 .884-.718 1.601-1.602 1.601H62.666a1.601 1.601 0 0 1-1.593-1.768l.979-9.349a12.966 12.966 0 0 0-1.816-8.051c-2.095-3.439-3.306-7.867-3.238-11.847.082-4.817 2.025-9.304 5.471-12.635 3.446-3.329 7.991-5.122 12.816-5.042a17.887 17.887 0 0 1 12.524 5.365zM74.99 94.509c-8.041 0-14.652 6.468-14.789 14.53-.057 3.348 1.005 7.228 2.771 10.126a16.193 16.193 0 0 1 2.267 10.052l-.795 7.58h11.663v-2.171c0-1.741.68-3.377 1.914-4.606a6.46 6.46 0 0 1 4.614-1.893 5.276 5.276 0 0 0 3.8-1.568 5.293 5.293 0 0 0 1.557-3.804l-.023-3.238a1.6 1.6 0 0 1 1.602-1.613h2.492c-1.028-2.65-2.284-6.503-2.284-8.607 0-8.024-6.525-14.657-14.546-14.787l-.243-.001zm8.731 7.866l-.027.025c-.31.295-.707.44-1.103.44a1.6 1.6 0 0 1-1.103-2.762l.035-.033a1.603 1.603 0 0 1 2.265.065 1.6 1.6 0 0 1-.065 2.263l-.002.002zm-6.059-2.194a9.512 9.512 0 0 0-2.516-.38l-.155-.001c-5.165 0-9.412 4.154-9.5 9.332a1.602 1.602 0 0 1-1.601 1.574h-.027a1.602 1.602 0 0 1-1.575-1.629c.058-3.4 1.43-6.568 3.863-8.919a12.625 12.625 0 0 1 9.047-3.56 12.76 12.76 0 0 1 3.364.508 1.603 1.603 0 0 1-.9 3.075z"/>
</svg>
