<svg xmlns="http://www.w3.org/2000/svg" width="198" height="198">
    <path fill="#EDEDEE" fill-rule="evenodd" d="M99 0c54.676 0 99 44.324 99 99s-44.324 99-99 99S0 153.676 0 99 44.324 0 99 0z" opacity=".431"/>
    <path fill="#FFF" fill-rule="evenodd" d="M99 25c40.869 0 74 33.131 74 74s-33.131 74-74 74-74-33.131-74-74 33.131-74 74-74z"/>
    <path fill="#00BD99" fill-rule="evenodd" d="M116.444 118.232c.494 0 .978.203 1.327.555.348.352.549.841.549 1.34 0 .498-.201.987-.549 1.339a1.883 1.883 0 0 1-1.327.555c-.495 0-.977-.203-1.326-.555a1.912 1.912 0 0 1 0-2.679 1.879 1.879 0 0 1 1.326-.555zm12.523-8.633a17.116 17.116 0 0 0-3.095 9.838v24.668c0 1.047-.84 1.895-1.876 1.895h-29.42a1.885 1.885 0 0 1-1.876-1.895v-11.061a3.29 3.29 0 0 0-.961-2.336 3.223 3.223 0 0 0-2.302-.961h-.015l-8.057.035h-.059c-3.54 0-6.862-1.393-9.363-3.926a13.329 13.329 0 0 1-3.86-9.528l.056-7.931h-8.263a1.871 1.871 0 0 1-1.522-.787 1.91 1.91 0 0 1-.257-1.707l6.099-18.475a1.878 1.878 0 0 1 1.779-1.295h2.422c1.036 0 1.876.848 1.876 1.895 0 1.046-.84 1.894-1.876 1.894h-1.07l-4.848 14.686h7.549c.5 0 .979.201 1.331.56.352.358.548.843.545 1.348l-.07 9.839a9.55 9.55 0 0 0 2.765 6.826c1.801 1.824 4.192 2.828 6.75 2.812l8.057-.036h.031c1.868 0 3.624.733 4.949 2.065a7.075 7.075 0 0 1 2.065 5.022v9.167h18.117v-15.075c0-1.046.84-1.894 1.876-1.894s1.875.848 1.875 1.894v15.075h3.802v-22.774c0-4.319 1.306-8.475 3.779-12.02 3.705-5.314 5.904-11.459 6.288-17.495h-48.27a1.885 1.885 0 0 1-1.876-1.894c0-1.047.84-1.895 1.876-1.895h5.204v-5.684c0-1.046.839-1.894 1.875-1.894h12.004c1.036 0 1.876.848 1.876 1.894v5.684h6.74V74.375c0-1.047.84-1.895 1.876-1.895h16.505c1.036 0 1.876.848 1.876 1.895v11.758h2.25c1.036 0 1.876.848 1.876 1.895 0 7.406-2.498 15.067-7.033 21.571zm-27.841-27.255h-8.253v3.789h8.253v-3.789zm26.996-6.075h-12.754v9.864h12.754v-9.864zm-15.379-7.01H96.237a1.884 1.884 0 0 1-1.875-1.894V53.712c0-1.047.839-1.895 1.875-1.895h16.506c1.035 0 1.875.848 1.875 1.895v13.653c0 1.046-.84 1.894-1.875 1.894zm-1.876-13.653H98.113v9.864h12.754v-9.864zm-22.882 6.277h-9.003a1.885 1.885 0 0 1-1.876-1.895v-9.093c0-1.047.84-1.895 1.876-1.895h9.003c1.036 0 1.875.848 1.875 1.895v9.093a1.885 1.885 0 0 1-1.875 1.895zm-1.876-9.094h-5.252v5.305h5.252v-5.305zm-9.74 33.344c.493 0 .977.202 1.326.555.349.352.549.841.549 1.34a1.882 1.882 0 0 1-1.875 1.894c-.494 0-.978-.203-1.326-.555a1.92 1.92 0 0 1-.55-1.339c0-.499.201-.988.55-1.34a1.875 1.875 0 0 1 1.326-.555zm7.489-17.809v12.125a1.885 1.885 0 0 1-1.875 1.895H69.979a1.886 1.886 0 0 1-1.876-1.895V68.324c0-1.046.84-1.894 1.876-1.894h12.004c1.036 0 1.875.848 1.875 1.894zm-3.751 1.895h-8.252v8.336h8.252v-8.336z"/>
</svg>
