<svg xmlns="http://www.w3.org/2000/svg" width="198" height="198">
    <path fill="#EDEDEE" fill-rule="evenodd" d="M99 0c54.676 0 99 44.324 99 99s-44.324 99-99 99S0 153.676 0 99 44.324 0 99 0z" opacity=".431"/>
    <path fill="#FFF" fill-rule="evenodd" d="M99 25c40.869 0 74 33.131 74 74s-33.131 74-74 74-74-33.131-74-74 33.131-74 74-74z"/>
    <path fill="#00BD99" fill-rule="evenodd" d="M133.555 79.937c-.92 0-1.787-.23-2.548-.635l-4.739 4.74c-.301.3-.708.469-1.133.469h-21.48a1.601 1.601 0 1 1 0-3.203h20.817l4.271-4.271a5.406 5.406 0 0 1-.634-2.545 5.451 5.451 0 0 1 5.446-5.444A5.45 5.45 0 0 1 139 74.492a5.451 5.451 0 0 1-5.445 5.445zm0-7.687a2.244 2.244 0 0 0-2.242 2.242 2.244 2.244 0 0 0 2.242 2.242 2.245 2.245 0 0 0 2.242-2.242 2.245 2.245 0 0 0-2.242-2.242zm-8.648-5.36a5.413 5.413 0 0 1-2.151-.444l-4.867 8.82a1.6 1.6 0 0 1-1.402.828H99.442a1.602 1.602 0 1 1 0-3.203h16.099l4.736-8.583a5.416 5.416 0 0 1-.816-2.863A5.452 5.452 0 0 1 124.906 56a5.452 5.452 0 0 1 5.446 5.445 5.452 5.452 0 0 1-5.445 5.445zm0-7.687a2.245 2.245 0 0 0-2.243 2.242 2.245 2.245 0 0 0 2.243 2.242 2.245 2.245 0 0 0 2.242-2.242 2.245 2.245 0 0 0-2.242-2.242zm-31.01 19.766c-.423 0-.834-.171-1.134-.469a1.613 1.613 0 0 1-.469-1.132c0-.423.171-.835.469-1.133a1.618 1.618 0 0 1 1.134-.469c.421 0 .834.172 1.132.469.298.298.47.71.47 1.133 0 .421-.172.834-.47 1.132a1.615 1.615 0 0 1-1.132.469zm-.001-7.314a1.601 1.601 0 0 1-1.602-1.601 7.015 7.015 0 0 0-7.007-7.007c-3.863 0-7.006 3.143-7.006 7.007v.566c0 .698.165 1.371.475 1.976a5.418 5.418 0 0 1 3.047-.934 5.451 5.451 0 0 1 5.445 5.445 5.452 5.452 0 0 1-5.445 5.445 5.452 5.452 0 0 1-5.446-5.445c0-.647.114-1.267.322-1.843a7.47 7.47 0 0 1-1.574-4.022 5.075 5.075 0 0 0-7.155 4.622c0 1.169.4 2.291 1.132 3.192a8.512 8.512 0 0 1 4.786 6.338 4.812 4.812 0 0 1 3.312 4.565 4.81 4.81 0 0 1-4.805 4.805 4.81 4.81 0 0 1-4.804-4.805 4.811 4.811 0 0 1 3.051-4.471 5.293 5.293 0 0 0-5.133-4.029 5.29 5.29 0 0 0-5.286 5.284v16.019a5.291 5.291 0 0 0 5.286 5.285 5.23 5.23 0 0 0 3.037-.958 5.741 5.741 0 0 1-.419-2.155 5.771 5.771 0 0 1 5.765-5.765 5.772 5.772 0 0 1 5.766 5.765 5.772 5.772 0 0 1-5.766 5.766 5.73 5.73 0 0 1-3.371-1.094 8.552 8.552 0 0 1-3.139 1.43 8.292 8.292 0 0 0-1.563 4.876c0 4.629 3.766 8.394 8.394 8.394a8.39 8.39 0 0 0 6.112-2.646 4.774 4.774 0 0 1-.998-2.925 4.81 4.81 0 0 1 4.805-4.805 4.81 4.81 0 0 1 4.804 4.805 4.81 4.81 0 0 1-4.804 4.804c-.371 0-.731-.044-1.078-.124a11.595 11.595 0 0 1-4.326 3.178l.07.157a7.065 7.065 0 0 0 6.456 4.203c3.893 0 7.061-3.167 7.061-7.06V97.07l-.002-.044.002-.045V84.68a1.601 1.601 0 0 1 3.203 0v10.744h32.852a5.456 5.456 0 0 1 5.205-3.844A5.452 5.452 0 0 1 139 97.025a5.451 5.451 0 0 1-5.445 5.445 5.455 5.455 0 0 1-5.205-3.843H95.497v25.266c0 5.659-4.604 10.263-10.264 10.263a10.268 10.268 0 0 1-9.385-6.11l-.275-.62c-.455.054-.916.083-1.381.083-6.394 0-11.597-5.202-11.597-11.597 0-1.684.374-3.346 1.072-4.861-3.808-.836-6.667-4.234-6.667-8.29V86.743c0-4.551 3.601-8.276 8.103-8.478a8.264 8.264 0 0 1-.357-2.401c0-4.562 3.712-8.273 8.274-8.273.78 0 1.548.11 2.285.321.987-4.604 5.087-8.068 9.982-8.068 5.63 0 10.21 4.58 10.21 10.21 0 .884-.717 1.601-1.601 1.601zm-12.093 7.694a2.245 2.245 0 0 0 2.242-2.242 2.245 2.245 0 0 0-2.242-2.242 2.244 2.244 0 0 0-2.242 2.242 2.244 2.244 0 0 0 2.242 2.242zm-9.428 12.212c.883 0 1.602-.718 1.602-1.601s-.718-1.602-1.602-1.602a1.603 1.603 0 0 0 0 3.203zm1.497 15.935a2.565 2.565 0 0 0 2.563-2.562 2.566 2.566 0 0 0-2.563-2.563 2.566 2.566 0 0 0-2.562 2.563 2.565 2.565 0 0 0 2.562 2.562zm10.24 12.84a1.603 1.603 0 1 0-1.602-1.602c0 .883.719 1.602 1.602 1.602zm49.443-21.069a2.244 2.244 0 0 0 2.242-2.241 2.245 2.245 0 0 0-2.242-2.243 2.244 2.244 0 0 0-2.242 2.243 2.243 2.243 0 0 0 2.242 2.241zm-31.032 12.962a1.608 1.608 0 0 1 0-2.267 1.61 1.61 0 0 1 2.265 0c.298.298.469.712.469 1.135 0 .421-.171.834-.469 1.132a1.613 1.613 0 0 1-1.133.469c-.421 0-.834-.171-1.132-.469zm-3.081 5.61h17.045a1.6 1.6 0 0 1 1.404.831l4.87 8.882a5.404 5.404 0 0 1 2.146-.442 5.452 5.452 0 0 1 5.445 5.445 5.452 5.452 0 0 1-5.445 5.445 5.452 5.452 0 0 1-5.446-5.445c0-1.051.301-2.033.819-2.866l-4.742-8.648H99.442a1.6 1.6 0 1 1 0-3.202zm25.465 16.958a2.244 2.244 0 0 0 2.242-2.242 2.245 2.245 0 0 0-2.242-2.242 2.245 2.245 0 0 0-2.243 2.242 2.244 2.244 0 0 0 2.243 2.242zm3.202-15.284c0-.919.23-1.785.634-2.545l-4.271-4.271h-14.235a1.601 1.601 0 0 1 0-3.203h14.898c.425 0 .832.169 1.133.469l4.739 4.74a5.407 5.407 0 0 1 2.548-.635 5.451 5.451 0 0 1 5.445 5.445 5.452 5.452 0 0 1-5.445 5.445 5.452 5.452 0 0 1-5.446-5.445zm5.446 2.242a2.245 2.245 0 0 0 2.242-2.242 2.245 2.245 0 0 0-2.242-2.242 2.244 2.244 0 0 0-2.242 2.242 2.244 2.244 0 0 0 2.242 2.242z"/>
</svg>
