<svg xmlns="http://www.w3.org/2000/svg" width="198" height="198">
    <path fill="#EDEDEE" fill-rule="evenodd" d="M99 0c54.676 0 99 44.324 99 99s-44.324 99-99 99S0 153.676 0 99 44.324 0 99 0z" opacity=".431"/>
    <path fill="#FFF" fill-rule="evenodd" d="M99 25c40.869 0 74 33.131 74 74s-33.131 74-74 74-74-33.131-74-74 33.131-74 74-74z"/>
    <path fill="#00BD99" fill-rule="evenodd" d="M132.941 132.941C123.875 142.007 111.821 147 99 147c-12.821 0-24.875-4.993-33.941-14.059C55.993 123.875 51 111.821 51 99c0-12.821 4.993-24.875 14.059-33.941C74.125 55.993 86.179 51 99 51c12.821 0 24.875 4.993 33.941 14.059C142.007 74.125 147 86.179 147 99c0 12.821-4.993 24.875-14.059 33.941zM99 54.75C74.6 54.75 54.75 74.6 54.75 99c0 24.399 19.85 44.25 44.25 44.25s44.25-19.851 44.25-44.25c0-24.4-19.85-44.25-44.25-44.25zm0 80.062c-1.933 0-3.874-.155-5.768-.462a1.875 1.875 0 0 1 .6-3.702c1.696.275 3.435.414 5.168.414 17.679 0 32.062-14.383 32.062-32.062 0-6.555-1.941-12.797-5.626-18.146a6.362 6.362 0 0 1-2.438.486 6.322 6.322 0 0 1-4.484-1.854 6.348 6.348 0 0 1 0-8.967 6.348 6.348 0 0 1 8.967 0c2.148 2.148 2.428 5.466.844 7.921 4.248 6.04 6.487 13.12 6.487 20.56 0 19.747-16.065 35.812-35.812 35.812zm25.829-61.641a2.582 2.582 0 0 0-1.832-.758c-.663 0-1.326.253-1.831.758a2.593 2.593 0 0 0 0 3.663 2.593 2.593 0 0 0 3.663 0 2.593 2.593 0 0 0 0-3.663zm-13.127-3.775a1.86 1.86 0 0 1-.707-.14l-.011-.004-.019-.008a1.875 1.875 0 1 1 1.407-3.476l.039.016a1.876 1.876 0 0 1-.709 3.612zm-8.313-2.161A32.577 32.577 0 0 0 99 66.937c-17.679 0-32.063 14.384-32.063 32.063 0 6.557 1.941 12.795 5.625 18.142a6.332 6.332 0 0 1 2.441-.485c1.693 0 3.285.659 4.483 1.857a6.303 6.303 0 0 1 1.857 4.484c0 1.693-.66 3.285-1.857 4.483a6.303 6.303 0 0 1-4.484 1.857 6.298 6.298 0 0 1-4.483-1.857 6.302 6.302 0 0 1-1.857-4.483c0-1.239.354-2.423 1.012-3.438-4.249-6.038-6.487-13.116-6.487-20.56 0-19.747 16.066-35.812 35.813-35.812 1.638 0 3.286.111 4.898.332a1.876 1.876 0 0 1-.509 3.715zm-30.218 57.594a2.593 2.593 0 0 0 4.422-1.832 2.586 2.586 0 0 0-2.59-2.589c-.664 0-1.327.253-1.832.758a2.573 2.573 0 0 0-.759 1.831c0 .693.27 1.343.759 1.832zm3.726-14.619V87.8c0-.682.37-1.309.966-1.64l20.224-11.205a1.875 1.875 0 0 1 1.817 0l20.223 11.205c.597.331.967.958.967 1.64v22.41c0 .682-.37 1.31-.967 1.64l-20.223 11.205a1.872 1.872 0 0 1-1.817 0L77.863 111.85a1.874 1.874 0 0 1-.966-1.64zm23.973 8.022l16.474-9.127V90.983l-16.474 9.127v18.122zm-1.875-21.371L115.35 87.8l-16.355-9.061L82.64 87.8l16.355 9.061zm-18.348 12.244l16.473 9.127V100.11l-16.473-9.127v18.122zm6.415 19.661l.082.033a1.875 1.875 0 1 1-1.373 3.49l-.118-.047a1.876 1.876 0 0 1 1.409-3.476z"/>
</svg>
